<?xml version="1.0" encoding="UTF-8" standalone="no"?>
<!-- Created with Inkscape (http://www.inkscape.org/) -->

<svg
   width="40.854836mm"
   height="46.060757mm"
   viewBox="0 0 40.854836 46.060757"
   version="1.1"
   id="svg10051"
   xmlns="http://www.w3.org/2000/svg"
   xmlns:svg="http://www.w3.org/2000/svg">
  <defs
     id="defs10048" />
  <g
     id="layer1"
     transform="translate(513.4189,-660.36393)">
    <g
       id="g10507"
       transform="matrix(0.35277777,0,0,-0.35277777,-95.518337,299.71648)">
      <g
         id="g104372"
         transform="translate(-1690.173,-1419.1778)"
         style="fill:#000000;fill-opacity:1">
        <path
           d="m 617.40599,295.73997 -40.424,-23.694 v 73.277 l 11.927,6.886 v -14.129 -2.417 l 2.099,1.152 0.04,0.025 0.023,-0.016 0.056,-0.032 15.378,9.056 2.457,1.415 -5.43588,-15.09682 -12.47812,-9.11418 -0.294,-0.174 -1.845,-1.098 v -26.461 -2.362 l 2.131,1.177 0.079,-0.047 22.987,13.516 3.3,1.901 z m -44.399,-23.694 -11.927,6.885 v 22.28 l -39.605,22.867 v -22.279 l -11.926,6.885 v 73.27 l 63.458,-36.639 z m -49.552,120.237 10.448,-6.027 2.306,-1.328 3.983,-2.298 46.721,-26.978 -10.186,-5.884 -1.733,-1.002 h -0.008 l -63.45,36.631 z m 22.47,-6.338 10.448,-6.026 50.64,-29.237 -14.128,-8.277 v 12.094 2.298 l -1.989,1.144 -46.744,26.979 z m 73.492,-70.701 -0.024,0.017 -18.10995,10.66479 6.48323,4.93675 5.17072,16.40046 v 4.588 0.016 l -1.964,1.137 -0.016,-0.008 -46.656,26.931 -3.969,2.29 -14.399,8.316 -5.749,-3.315 -2.321,1.335 -14.4,8.317 -15.91,-9.175 -1.98,-1.138 v -2.305 -77.858 l 19.878,-11.48 v 22.278 l 31.653,-18.271 v -22.28 l 15.903,-9.183 1.987,-1.154 1.988,1.154 44.4,25.984 v 18.375 2.29 0.008 z"
           style="fill:#000000;fill-opacity:1;fill-rule:nonzero;stroke:none"
           id="path104358" />
        <g
           id="g104370"
           style="fill:#000000;fill-opacity:1">
          <g
             id="g104364"
             transform="translate(561.07979,338.42937)"
             style="fill:#000000;fill-opacity:1">
            <path
               d="M 0,0 -39.604,22.867 V -0.58 L 0,-23.439 Z"
               style="fill:#000000;fill-opacity:1;fill-rule:nonzero;stroke:none"
               id="path104360" />
            <path
               style="fill:#000000;fill-opacity:1;stroke:none;stroke-width:0.75px;stroke-linecap:butt;stroke-linejoin:miter;stroke-opacity:1"
               d="m -39.603998,22.866999 -6.297623,3.980723 6.447353,-8.596478 0.547536,4.217317"
               id="path104362" />
          </g>
          <g
             id="g104368"
             transform="translate(543.39629,309.91187)"
             style="fill:#000000;fill-opacity:1">
            <path
               d="m 0,0 v 0.124 l -17.963,-10.528 v -4.59 L 1.234,-3.76 V 0 Z"
               style="fill:#000000;fill-opacity:1;fill-rule:nonzero;stroke:none"
               id="path104366" />
          </g>
        </g>
      </g>
    </g>
  </g>
</svg>
